<svg version="1.1" xmlns="http://www.w3.org/2000/svg" viewBox="0 0 800 400"><g><path d="M160,150  L160,0  A150,150 0 1,1 70,270 L160,150  A0,0 0 1,0 160,150" stroke="white" stroke-width="1" fill="#3366cc" value="29522" onclick="if(confirm(&quot;Download the annotated sequences for this segment?&quot;)){window.open(&quot;https://api-ui.mg-rast.org/annotation/sequence/mgm4972426.3?source=KO&amp;type=ontology&amp;filter_level=level1&amp;browser=1&amp;filter=Metabolism&amp;auth=mgrast%20KT9vZ7GkET7tB9TF9EZa68msM&quot;);}" style="opacity: 1;"></path><path d="M160,150  L70,270  A150,150 0 0,1 12,121 L160,150  A0,0 0 0,0 160,150" stroke="white" stroke-width="1" fill="#dc3912" value="8804" onclick="if(confirm(&quot;Download the annotated sequences for this segment?&quot;)){window.open(&quot;https://api-ui.mg-rast.org/annotation/sequence/mgm4972426.3?source=KO&amp;type=ontology&amp;filter_level=level1&amp;browser=1&amp;filter=Environmental%20Information%20Processing&amp;auth=mgrast%20KT9vZ7GkET7tB9TF9EZa68msM&quot;);}" style="opacity: 1;"></path><path d="M160,150  L12,121  A150,150 0 0,1 101,11 L160,150  A0,0 0 0,0 160,150" stroke="white" stroke-width="1" fill="#ff9900" value="7612" onclick="if(confirm(&quot;Download the annotated sequences for this segment?&quot;)){window.open(&quot;https://api-ui.mg-rast.org/annotation/sequence/mgm4972426.3?source=KO&amp;type=ontology&amp;filter_level=level1&amp;browser=1&amp;filter=Genetic%20Information%20Processing&amp;auth=mgrast%20KT9vZ7GkET7tB9TF9EZa68msM&quot;);}" style="opacity: 1;"></path><path d="M160,150  L101,11  A150,150 0 0,1 143,0 L160,150  A0,0 0 0,0 160,150" stroke="white" stroke-width="1" fill="#109618" value="2298" onclick="if(confirm(&quot;Download the annotated sequences for this segment?&quot;)){window.open(&quot;https://api-ui.mg-rast.org/annotation/sequence/mgm4972426.3?source=KO&amp;type=ontology&amp;filter_level=level1&amp;browser=1&amp;filter=Cellular%20Processes&amp;auth=mgrast%20KT9vZ7GkET7tB9TF9EZa68msM&quot;);}" style="opacity: 1;"></path><path d="M160,150  L143,0  A150,150 0 0,1 157,0 L160,150  A0,0 0 0,0 160,150" stroke="white" stroke-width="1" fill="#990099" value="718" onclick="if(confirm(&quot;Download the annotated sequences for this segment?&quot;)){window.open(&quot;https://api-ui.mg-rast.org/annotation/sequence/mgm4972426.3?source=KO&amp;type=ontology&amp;filter_level=level1&amp;browser=1&amp;filter=Human%20Diseases&amp;auth=mgrast%20KT9vZ7GkET7tB9TF9EZa68msM&quot;);}" style="opacity: 1;"></path><path d="M160,150  L157,0  A150,150 0 0,1 160,0 L160,150  A0,0 0 0,0 160,150" stroke="white" stroke-width="1" fill="#0099c6" value="126" onclick="if(confirm(&quot;Download the annotated sequences for this segment?&quot;)){window.open(&quot;https://api-ui.mg-rast.org/annotation/sequence/mgm4972426.3?source=KO&amp;type=ontology&amp;filter_level=level1&amp;browser=1&amp;filter=Organismal%20Systems&amp;auth=mgrast%20KT9vZ7GkET7tB9TF9EZa68msM&quot;);}" style="opacity: 1;"></path></g><g><rect x="400" y="50" width="15" height="15" stroke="white" stroke-width="0" fill="#3366cc"></rect><text x="430" y="63" font-size="15" font-weight="normal" font-family="Helvetica" style="cursor: default; font-weight: normal;">Metabolism - 29,522 (60.15%)</text><rect x="400" y="75" width="15" height="15" stroke="white" stroke-width="0" fill="#dc3912"></rect><text x="430" y="88" font-size="15" font-weight="normal" font-family="Helvetica" style="cursor: default; font-weight: normal;">Environmental Information Processing - 8,804 (17.94%)</text><rect x="400" y="100" width="15" height="15" stroke="white" stroke-width="0" fill="#ff9900"></rect><text x="430" y="113" font-size="15" font-weight="normal" font-family="Helvetica" style="cursor: default; font-weight: normal;">Genetic Information Processing - 7,612 (15.51%)</text><rect x="400" y="125" width="15" height="15" stroke="white" stroke-width="0" fill="#109618"></rect><text x="430" y="138" font-size="15" font-weight="normal" font-family="Helvetica" style="cursor: default; font-weight: normal;">Cellular Processes - 2,298 (4.68%)</text><rect x="400" y="150" width="15" height="15" stroke="white" stroke-width="0" fill="#990099"></rect><text x="430" y="163" font-size="15" font-weight="normal" font-family="Helvetica" style="cursor: default; font-weight: normal;">Human Diseases - 718 (1.46%)</text><rect x="400" y="175" width="15" height="15" stroke="white" stroke-width="0" fill="#0099c6"></rect><text x="430" y="188" font-size="15" font-weight="normal" font-family="Helvetica" style="cursor: default; font-weight: normal;">Organismal Systems - 126 (0.26%)</text></g></svg>