<svg version="1.1" xmlns="http://www.w3.org/2000/svg" viewBox="0 0 800 400"><g><path d="M160,150  L160,0  A150,150 0 0,1 282,63 L160,150  A0,0 0 0,0 160,150" stroke="white" stroke-width="1" fill="#3366cc" value="20705" onclick="if(confirm(&quot;Download the annotated sequences for this segment?&quot;)){window.open(&quot;https://api-ui.mg-rast.org/annotation/sequence/mgm4972426.3?source=Subsystems&amp;type=ontology&amp;filter_level=level1&amp;browser=1&amp;filter=Carbohydrates&amp;auth=mgrast%20KT9vZ7GkET7tB9TF9EZa68msM&quot;);}" style="opacity: 1;"></path><path d="M160,150  L282,63  A150,150 0 0,1 305,186 L160,150  A0,0 0 0,0 160,150" stroke="white" stroke-width="1" fill="#dc3912" value="18636" onclick="if(confirm(&quot;Download the annotated sequences for this segment?&quot;)){window.open(&quot;https://api-ui.mg-rast.org/annotation/sequence/mgm4972426.3?source=Subsystems&amp;type=ontology&amp;filter_level=level1&amp;browser=1&amp;filter=Clustering-based%20subsystems&amp;auth=mgrast%20KT9vZ7GkET7tB9TF9EZa68msM&quot;);}" style="opacity: 1;"></path><path d="M160,150  L305,186  A150,150 0 0,1 246,272 L160,150  A0,0 0 0,0 160,150" stroke="white" stroke-width="1" fill="#ff9900" value="15235" onclick="if(confirm(&quot;Download the annotated sequences for this segment?&quot;)){window.open(&quot;https://api-ui.mg-rast.org/annotation/sequence/mgm4972426.3?source=Subsystems&amp;type=ontology&amp;filter_level=level1&amp;browser=1&amp;filter=Amino%20Acids%20and%20Derivatives&amp;auth=mgrast%20KT9vZ7GkET7tB9TF9EZa68msM&quot;);}" style="opacity: 1;"></path><path d="M160,150  L246,272  A150,150 0 0,1 185,297 L160,150  A0,0 0 0,0 160,150" stroke="white" stroke-width="1" fill="#109618" value="9681" onclick="if(confirm(&quot;Download the annotated sequences for this segment?&quot;)){window.open(&quot;https://api-ui.mg-rast.org/annotation/sequence/mgm4972426.3?source=Subsystems&amp;type=ontology&amp;filter_level=level1&amp;browser=1&amp;filter=Miscellaneous&amp;auth=mgrast%20KT9vZ7GkET7tB9TF9EZa68msM&quot;);}" style="opacity: 1;"></path><path d="M160,150  L185,297  A150,150 0 0,1 123,295 L160,150  A0,0 0 0,0 160,150" stroke="white" stroke-width="1" fill="#990099" value="8990" onclick="if(confirm(&quot;Download the annotated sequences for this segment?&quot;)){window.open(&quot;https://api-ui.mg-rast.org/annotation/sequence/mgm4972426.3?source=Subsystems&amp;type=ontology&amp;filter_level=level1&amp;browser=1&amp;filter=Protein%20Metabolism&amp;auth=mgrast%20KT9vZ7GkET7tB9TF9EZa68msM&quot;);}" style="opacity: 1;"></path><path d="M160,150  L123,295  A150,150 0 0,1 68,268 L160,150  A0,0 0 0,0 160,150" stroke="white" stroke-width="1" fill="#0099c6" value="8972" onclick="if(confirm(&quot;Download the annotated sequences for this segment?&quot;)){window.open(&quot;https://api-ui.mg-rast.org/annotation/sequence/mgm4972426.3?source=Subsystems&amp;type=ontology&amp;filter_level=level1&amp;browser=1&amp;filter=Cofactors,%20Vitamins,%20Prosthetic%20Groups,%20Pigments&amp;auth=mgrast%20KT9vZ7GkET7tB9TF9EZa68msM&quot;);}" style="opacity: 1;"></path><path d="M160,150  L68,268  A150,150 0 0,1 38,238 L160,150  A0,0 0 0,0 160,150" stroke="white" stroke-width="1" fill="#dd4477" value="6054" onclick="if(confirm(&quot;Download the annotated sequences for this segment?&quot;)){window.open(&quot;https://api-ui.mg-rast.org/annotation/sequence/mgm4972426.3?source=Subsystems&amp;type=ontology&amp;filter_level=level1&amp;browser=1&amp;filter=RNA%20Metabolism&amp;auth=mgrast%20KT9vZ7GkET7tB9TF9EZa68msM&quot;);}"></path><path d="M160,150  L38,238  A150,150 0 0,1 19,203 L160,150  A0,0 0 0,0 160,150" stroke="white" stroke-width="1" fill="#66aa00" value="5754" onclick="if(confirm(&quot;Download the annotated sequences for this segment?&quot;)){window.open(&quot;https://api-ui.mg-rast.org/annotation/sequence/mgm4972426.3?source=Subsystems&amp;type=ontology&amp;filter_level=level1&amp;browser=1&amp;filter=Fatty%20Acids,%20Lipids,%20and%20Isoprenoids&amp;auth=mgrast%20KT9vZ7GkET7tB9TF9EZa68msM&quot;);}"></path><path d="M160,150  L19,203  A150,150 0 0,1 11,172 L160,150  A0,0 0 0,0 160,150" stroke="white" stroke-width="1" fill="#b82e2e" value="4684" onclick="if(confirm(&quot;Download the annotated sequences for this segment?&quot;)){window.open(&quot;https://api-ui.mg-rast.org/annotation/sequence/mgm4972426.3?source=Subsystems&amp;type=ontology&amp;filter_level=level1&amp;browser=1&amp;filter=Cell%20Wall%20and%20Capsule&amp;auth=mgrast%20KT9vZ7GkET7tB9TF9EZa68msM&quot;);}"></path><path d="M160,150  L11,172  A150,150 0 0,1 10,140 L160,150  A0,0 0 0,0 160,150" stroke="white" stroke-width="1" fill="#316395" value="4608" onclick="if(confirm(&quot;Download the annotated sequences for this segment?&quot;)){window.open(&quot;https://api-ui.mg-rast.org/annotation/sequence/mgm4972426.3?source=Subsystems&amp;type=ontology&amp;filter_level=level1&amp;browser=1&amp;filter=DNA%20Metabolism&amp;auth=mgrast%20KT9vZ7GkET7tB9TF9EZa68msM&quot;);}"></path><path d="M160,150  L10,140  A150,150 0 0,1 15,110 L160,150  A0,0 0 0,0 160,150" stroke="white" stroke-width="1" fill="#994499" value="4353" onclick="if(confirm(&quot;Download the annotated sequences for this segment?&quot;)){window.open(&quot;https://api-ui.mg-rast.org/annotation/sequence/mgm4972426.3?source=Subsystems&amp;type=ontology&amp;filter_level=level1&amp;browser=1&amp;filter=Respiration&amp;auth=mgrast%20KT9vZ7GkET7tB9TF9EZa68msM&quot;);}" style="opacity: 1;"></path><path d="M160,150  L15,110  A150,150 0 0,1 23,86 L160,150  A0,0 0 0,0 160,150" stroke="white" stroke-width="1" fill="#22aa99" value="3640" onclick="if(confirm(&quot;Download the annotated sequences for this segment?&quot;)){window.open(&quot;https://api-ui.mg-rast.org/annotation/sequence/mgm4972426.3?source=Subsystems&amp;type=ontology&amp;filter_level=level1&amp;browser=1&amp;filter=Virulence,%20Disease%20and%20Defense&amp;auth=mgrast%20KT9vZ7GkET7tB9TF9EZa68msM&quot;);}" style="opacity: 1;"></path><path d="M160,150  L23,86  A150,150 0 0,1 34,67 L160,150  A0,0 0 0,0 160,150" stroke="white" stroke-width="1" fill="#aaaa11" value="3232" onclick="if(confirm(&quot;Download the annotated sequences for this segment?&quot;)){window.open(&quot;https://api-ui.mg-rast.org/annotation/sequence/mgm4972426.3?source=Subsystems&amp;type=ontology&amp;filter_level=level1&amp;browser=1&amp;filter=Nucleosides%20and%20Nucleotides&amp;auth=mgrast%20KT9vZ7GkET7tB9TF9EZa68msM&quot;);}" style="opacity: 1;"></path><path d="M160,150  L34,67  A150,150 0 0,1 48,50 L160,150  A0,0 0 0,0 160,150" stroke="white" stroke-width="1" fill="#6633cc" value="3133" onclick="if(confirm(&quot;Download the annotated sequences for this segment?&quot;)){window.open(&quot;https://api-ui.mg-rast.org/annotation/sequence/mgm4972426.3?source=Subsystems&amp;type=ontology&amp;filter_level=level1&amp;browser=1&amp;filter=Stress%20Response&amp;auth=mgrast%20KT9vZ7GkET7tB9TF9EZa68msM&quot;);}" style="opacity: 1;"></path><path d="M160,150  L48,50  A150,150 0 0,1 63,35 L160,150  A0,0 0 0,0 160,150" stroke="white" stroke-width="1" fill="#e67300" value="3124" onclick="if(confirm(&quot;Download the annotated sequences for this segment?&quot;)){window.open(&quot;https://api-ui.mg-rast.org/annotation/sequence/mgm4972426.3?source=Subsystems&amp;type=ontology&amp;filter_level=level1&amp;browser=1&amp;filter=Membrane%20Transport&amp;auth=mgrast%20KT9vZ7GkET7tB9TF9EZa68msM&quot;);}" style="opacity: 1;"></path><path d="M160,150  L63,35  A150,150 0 0,1 79,23 L160,150  A0,0 0 0,0 160,150" stroke="white" stroke-width="1" fill="#8b0707" value="2784" onclick="if(confirm(&quot;Download the annotated sequences for this segment?&quot;)){window.open(&quot;https://api-ui.mg-rast.org/annotation/sequence/mgm4972426.3?source=Subsystems&amp;type=ontology&amp;filter_level=level1&amp;browser=1&amp;filter=Metabolism%20of%20Aromatic%20Compounds&amp;auth=mgrast%20KT9vZ7GkET7tB9TF9EZa68msM&quot;);}" style="opacity: 1;"></path><path d="M160,150  L79,23  A150,150 0 0,1 89,17 L160,150  A0,0 0 0,0 160,150" stroke="white" stroke-width="1" fill="#651067" value="1767" onclick="if(confirm(&quot;Download the annotated sequences for this segment?&quot;)){window.open(&quot;https://api-ui.mg-rast.org/annotation/sequence/mgm4972426.3?source=Subsystems&amp;type=ontology&amp;filter_level=level1&amp;browser=1&amp;filter=Regulation%20and%20Cell%20signaling&amp;auth=mgrast%20KT9vZ7GkET7tB9TF9EZa68msM&quot;);}"></path><path d="M160,150  L89,17  A150,150 0 0,1 99,12 L160,150  A0,0 0 0,0 160,150" stroke="white" stroke-width="1" fill="#329262" value="1509" onclick="if(confirm(&quot;Download the annotated sequences for this segment?&quot;)){window.open(&quot;https://api-ui.mg-rast.org/annotation/sequence/mgm4972426.3?source=Subsystems&amp;type=ontology&amp;filter_level=level1&amp;browser=1&amp;filter=Sulfur%20Metabolism&amp;auth=mgrast%20KT9vZ7GkET7tB9TF9EZa68msM&quot;);}" style="opacity: 1;"></path><path d="M160,150  L99,12  A150,150 0 0,1 108,9 L160,150  A0,0 0 0,0 160,150" stroke="white" stroke-width="1" fill="#5574a6" value="1427" onclick="if(confirm(&quot;Download the annotated sequences for this segment?&quot;)){window.open(&quot;https://api-ui.mg-rast.org/annotation/sequence/mgm4972426.3?source=Subsystems&amp;type=ontology&amp;filter_level=level1&amp;browser=1&amp;filter=Phosphorus%20Metabolism&amp;auth=mgrast%20KT9vZ7GkET7tB9TF9EZa68msM&quot;);}"></path><path d="M160,150  L108,9  A150,150 0 0,1 117,6 L160,150  A0,0 0 0,0 160,150" stroke="white" stroke-width="1" fill="#3b3eac" value="1423" onclick="if(confirm(&quot;Download the annotated sequences for this segment?&quot;)){window.open(&quot;https://api-ui.mg-rast.org/annotation/sequence/mgm4972426.3?source=Subsystems&amp;type=ontology&amp;filter_level=level1&amp;browser=1&amp;filter=Cell%20Division%20and%20Cell%20Cycle&amp;auth=mgrast%20KT9vZ7GkET7tB9TF9EZa68msM&quot;);}"></path><path d="M160,150  L117,6  A150,150 0 0,1 127,3 L160,150  A0,0 0 0,0 160,150" stroke="white" stroke-width="1" fill="#b77322" value="1391" onclick="if(confirm(&quot;Download the annotated sequences for this segment?&quot;)){window.open(&quot;https://api-ui.mg-rast.org/annotation/sequence/mgm4972426.3?source=Subsystems&amp;type=ontology&amp;filter_level=level1&amp;browser=1&amp;filter=Phages,%20Prophages,%20Transposable%20elements,%20Plasmids&amp;auth=mgrast%20KT9vZ7GkET7tB9TF9EZa68msM&quot;);}"></path><path d="M160,150  L127,3  A150,150 0 0,1 136,1 L160,150  A0,0 0 0,0 160,150" stroke="white" stroke-width="1" fill="#16d620" value="1349" onclick="if(confirm(&quot;Download the annotated sequences for this segment?&quot;)){window.open(&quot;https://api-ui.mg-rast.org/annotation/sequence/mgm4972426.3?source=Subsystems&amp;type=ontology&amp;filter_level=level1&amp;browser=1&amp;filter=Nitrogen%20Metabolism&amp;auth=mgrast%20KT9vZ7GkET7tB9TF9EZa68msM&quot;);}" style="opacity: 1;"></path><path d="M160,150  L136,1  A150,150 0 0,1 144,0 L160,150  A0,0 0 0,0 160,150" stroke="white" stroke-width="1" fill="#b91383" value="1264" onclick="if(confirm(&quot;Download the annotated sequences for this segment?&quot;)){window.open(&quot;https://api-ui.mg-rast.org/annotation/sequence/mgm4972426.3?source=Subsystems&amp;type=ontology&amp;filter_level=level1&amp;browser=1&amp;filter=Motility%20and%20Chemotaxis&amp;auth=mgrast%20KT9vZ7GkET7tB9TF9EZa68msM&quot;);}"></path><path d="M160,150  L144,0  A150,150 0 0,1 150,0 L160,150  A0,0 0 0,0 160,150" stroke="white" stroke-width="1" fill="#f4359e" value="795" onclick="if(confirm(&quot;Download the annotated sequences for this segment?&quot;)){window.open(&quot;https://api-ui.mg-rast.org/annotation/sequence/mgm4972426.3?source=Subsystems&amp;type=ontology&amp;filter_level=level1&amp;browser=1&amp;filter=Iron%20acquisition%20and%20metabolism&amp;auth=mgrast%20KT9vZ7GkET7tB9TF9EZa68msM&quot;);}" style="opacity: 1;"></path><path d="M160,150  L150,0  A150,150 0 0,1 154,0 L160,150  A0,0 0 0,0 160,150" stroke="white" stroke-width="1" fill="#9c5935" value="580" onclick="if(confirm(&quot;Download the annotated sequences for this segment?&quot;)){window.open(&quot;https://api-ui.mg-rast.org/annotation/sequence/mgm4972426.3?source=Subsystems&amp;type=ontology&amp;filter_level=level1&amp;browser=1&amp;filter=Secondary%20Metabolism&amp;auth=mgrast%20KT9vZ7GkET7tB9TF9EZa68msM&quot;);}" style="opacity: 1;"></path><path d="M160,150  L154,0  A150,150 0 0,1 157,0 L160,150  A0,0 0 0,0 160,150" stroke="white" stroke-width="1" fill="#a9c413" value="508" onclick="if(confirm(&quot;Download the annotated sequences for this segment?&quot;)){window.open(&quot;https://api-ui.mg-rast.org/annotation/sequence/mgm4972426.3?source=Subsystems&amp;type=ontology&amp;filter_level=level1&amp;browser=1&amp;filter=Potassium%20metabolism&amp;auth=mgrast%20KT9vZ7GkET7tB9TF9EZa68msM&quot;);}"></path><path d="M160,150  L157,0  A150,150 0 0,1 159,0 L160,150  A0,0 0 0,0 160,150" stroke="white" stroke-width="1" fill="#2a778d" value="169" onclick="if(confirm(&quot;Download the annotated sequences for this segment?&quot;)){window.open(&quot;https://api-ui.mg-rast.org/annotation/sequence/mgm4972426.3?source=Subsystems&amp;type=ontology&amp;filter_level=level1&amp;browser=1&amp;filter=Dormancy%20and%20Sporulation&amp;auth=mgrast%20KT9vZ7GkET7tB9TF9EZa68msM&quot;);}"></path><path d="M160,150  L159,0  A150,150 0 0,1 159,0 L160,150  A0,0 0 0,0 160,150" stroke="white" stroke-width="1" fill="#668d1c" value="127" onclick="if(confirm(&quot;Download the annotated sequences for this segment?&quot;)){window.open(&quot;https://api-ui.mg-rast.org/annotation/sequence/mgm4972426.3?source=Subsystems&amp;type=ontology&amp;filter_level=level1&amp;browser=1&amp;filter=Photosynthesis&amp;auth=mgrast%20KT9vZ7GkET7tB9TF9EZa68msM&quot;);}" style="opacity: 1;"></path></g><g><rect x="400" y="50" width="15" height="15" stroke="white" stroke-width="0" fill="#3366cc"></rect><text x="430" y="63" font-size="15" font-weight="normal" font-family="Helvetica" style="cursor: default; font-weight: normal;">Carbohydrates - 20,705 (15.24%)</text><rect x="400" y="75" width="15" height="15" stroke="white" stroke-width="0" fill="#dc3912"></rect><text x="430" y="88" font-size="15" font-weight="normal" font-family="Helvetica" style="cursor: default; font-weight: normal;">Clustering-based subsystems - 18,636 (13.71%)</text><rect x="400" y="100" width="15" height="15" stroke="white" stroke-width="0" fill="#ff9900"></rect><text x="430" y="113" font-size="15" font-weight="normal" font-family="Helvetica" style="cursor: default; font-weight: normal;">Amino Acids and Derivatives - 15,235 (11.21%)</text><rect x="400" y="125" width="15" height="15" stroke="white" stroke-width="0" fill="#109618"></rect><text x="430" y="138" font-size="15" font-weight="normal" font-family="Helvetica" style="cursor: default; font-weight: normal;">Miscellaneous - 9,681 (7.12%)</text><rect x="400" y="150" width="15" height="15" stroke="white" stroke-width="0" fill="#990099"></rect><text x="430" y="163" font-size="15" font-weight="normal" font-family="Helvetica" style="cursor: default; font-weight: normal;">Protein Metabolism - 8,990 (6.62%)</text><rect x="400" y="175" width="15" height="15" stroke="white" stroke-width="0" fill="#0099c6"></rect><text x="430" y="188" font-size="15" font-weight="normal" font-family="Helvetica" style="cursor: default; font-weight: normal;">Cofactors, Vitamins, Prosthetic Groups, Pigments - 8,972 (6.60%)</text><rect x="400" y="200" width="15" height="15" stroke="white" stroke-width="0" fill="#dd4477"></rect><text x="430" y="213" font-size="15" font-weight="normal" font-family="Helvetica" style="cursor: default;">RNA Metabolism - 6,054 (4.45%)</text><rect x="400" y="225" width="15" height="15" stroke="white" stroke-width="0" fill="#66aa00"></rect><text x="430" y="238" font-size="15" font-weight="normal" font-family="Helvetica" style="cursor: default;">Fatty Acids, Lipids, and Isoprenoids - 5,754 (4.23%)</text><rect x="400" y="250" width="15" height="15" stroke="white" stroke-width="0" fill="#b82e2e"></rect><text x="430" y="263" font-size="15" font-weight="normal" font-family="Helvetica" style="cursor: default;">Cell Wall and Capsule - 4,684 (3.45%)</text><rect x="400" y="275" width="15" height="15" stroke="white" stroke-width="0" fill="#316395"></rect><text x="430" y="288" font-size="15" font-weight="normal" font-family="Helvetica" style="cursor: default;">DNA Metabolism - 4,608 (3.39%)</text><rect x="400" y="300" width="15" height="15" stroke="white" stroke-width="0" fill="#994499"></rect><text x="430" y="313" font-size="15" font-weight="normal" font-family="Helvetica" style="cursor: default; font-weight: normal;">Respiration - 4,353 (3.20%)</text><rect x="400" y="325" width="15" height="15" stroke="white" stroke-width="0" fill="#22aa99"></rect><text x="430" y="338" font-size="15" font-weight="normal" font-family="Helvetica" style="cursor: default; font-weight: normal;">Virulence, Disease and Defense - 3,640 (2.68%)</text><rect x="400" y="350" width="15" height="15" stroke="white" stroke-width="0" fill="#aaaa11"></rect><text x="430" y="363" font-size="15" font-weight="normal" font-family="Helvetica" style="cursor: default; font-weight: normal;">Nucleosides and Nucleotides - 3,232 (2.38%)</text><rect x="400" y="375" width="15" height="15" stroke="white" stroke-width="0" fill="#6633cc"></rect><text x="430" y="388" font-size="15" font-weight="normal" font-family="Helvetica" style="cursor: default; font-weight: normal;">Stress Response - 3,133 (2.31%)</text><rect x="400" y="400" width="15" height="15" stroke="white" stroke-width="0" fill="#e67300"></rect><text x="430" y="413" font-size="15" font-weight="normal" font-family="Helvetica" style="cursor: default; font-weight: normal;">Membrane Transport - 3,124 (2.30%)</text><rect x="400" y="425" width="15" height="15" stroke="white" stroke-width="0" fill="#8b0707"></rect><text x="430" y="438" font-size="15" font-weight="normal" font-family="Helvetica" style="cursor: default; font-weight: normal;">Metabolism of Aromatic Compounds - 2,784 (2.05%)</text><rect x="400" y="450" width="15" height="15" stroke="white" stroke-width="0" fill="#651067"></rect><text x="430" y="463" font-size="15" font-weight="normal" font-family="Helvetica" style="cursor: default;">Regulation and Cell signaling - 1,767 (1.30%)</text><rect x="400" y="475" width="15" height="15" stroke="white" stroke-width="0" fill="#329262"></rect><text x="430" y="488" font-size="15" font-weight="normal" font-family="Helvetica" style="cursor: default; font-weight: normal;">Sulfur Metabolism - 1,509 (1.11%)</text><rect x="400" y="500" width="15" height="15" stroke="white" stroke-width="0" fill="#5574a6"></rect><text x="430" y="513" font-size="15" font-weight="normal" font-family="Helvetica" style="cursor: default;">Phosphorus Metabolism - 1,427 (1.05%)</text><rect x="400" y="525" width="15" height="15" stroke="white" stroke-width="0" fill="#3b3eac"></rect><text x="430" y="538" font-size="15" font-weight="normal" font-family="Helvetica" style="cursor: default;">Cell Division and Cell Cycle - 1,423 (1.05%)</text><rect x="400" y="550" width="15" height="15" stroke="white" stroke-width="0" fill="#b77322"></rect><text x="430" y="563" font-size="15" font-weight="normal" font-family="Helvetica" style="cursor: default;">Phages, Prophages, Transposable elements, Plasmids - 1,391 (1.02%)</text><rect x="400" y="575" width="15" height="15" stroke="white" stroke-width="0" fill="#16d620"></rect><text x="430" y="588" font-size="15" font-weight="normal" font-family="Helvetica" style="cursor: default; font-weight: normal;">Nitrogen Metabolism - 1,349 (0.99%)</text><rect x="400" y="600" width="15" height="15" stroke="white" stroke-width="0" fill="#b91383"></rect><text x="430" y="613" font-size="15" font-weight="normal" font-family="Helvetica" style="cursor: default;">Motility and Chemotaxis - 1,264 (0.93%)</text><rect x="400" y="625" width="15" height="15" stroke="white" stroke-width="0" fill="#f4359e"></rect><text x="430" y="638" font-size="15" font-weight="normal" font-family="Helvetica" style="cursor: default; font-weight: normal;">Iron acquisition and metabolism - 795 (0.59%)</text><rect x="400" y="650" width="15" height="15" stroke="white" stroke-width="0" fill="#9c5935"></rect><text x="430" y="663" font-size="15" font-weight="normal" font-family="Helvetica" style="cursor: default; font-weight: normal;">Secondary Metabolism - 580 (0.43%)</text><rect x="400" y="675" width="15" height="15" stroke="white" stroke-width="0" fill="#a9c413"></rect><text x="430" y="688" font-size="15" font-weight="normal" font-family="Helvetica" style="cursor: default;">Potassium metabolism - 508 (0.37%)</text><rect x="400" y="700" width="15" height="15" stroke="white" stroke-width="0" fill="#2a778d"></rect><text x="430" y="713" font-size="15" font-weight="normal" font-family="Helvetica" style="cursor: default;">Dormancy and Sporulation - 169 (0.12%)</text><rect x="400" y="725" width="15" height="15" stroke="white" stroke-width="0" fill="#668d1c"></rect><text x="430" y="738" font-size="15" font-weight="normal" font-family="Helvetica" style="cursor: default; font-weight: normal;">Photosynthesis - 127 (0.09%)</text></g></svg>