<svg version="1.1" xmlns="http://www.w3.org/2000/svg" viewBox="0 0 800 400"><g><path d="M160,150  L160,0  A150,150 0 0,1 281,61 L160,150  A0,0 0 0,0 160,150" stroke="white" stroke-width="1" fill="#3366cc" value="19983" onclick="if(confirm(&quot;Download the annotated sequences for this segment?&quot;)){window.open(&quot;https://api-ui.mg-rast.org/annotation/sequence/mgm4972425.3?source=Subsystems&amp;type=ontology&amp;filter_level=level1&amp;browser=1&amp;filter=Carbohydrates&amp;auth=mgrast%20KT9vZ7GkET7tB9TF9EZa68msM&quot;);}"></path><path d="M160,150  L281,61  A150,150 0 0,1 305,185 L160,150  A0,0 0 0,0 160,150" stroke="white" stroke-width="1" fill="#dc3912" value="18459" onclick="if(confirm(&quot;Download the annotated sequences for this segment?&quot;)){window.open(&quot;https://api-ui.mg-rast.org/annotation/sequence/mgm4972425.3?source=Subsystems&amp;type=ontology&amp;filter_level=level1&amp;browser=1&amp;filter=Clustering-based%20subsystems&amp;auth=mgrast%20KT9vZ7GkET7tB9TF9EZa68msM&quot;);}"></path><path d="M160,150  L305,185  A150,150 0 0,1 248,271 L160,150  A0,0 0 0,0 160,150" stroke="white" stroke-width="1" fill="#ff9900" value="14876" onclick="if(confirm(&quot;Download the annotated sequences for this segment?&quot;)){window.open(&quot;https://api-ui.mg-rast.org/annotation/sequence/mgm4972425.3?source=Subsystems&amp;type=ontology&amp;filter_level=level1&amp;browser=1&amp;filter=Amino%20Acids%20and%20Derivatives&amp;auth=mgrast%20KT9vZ7GkET7tB9TF9EZa68msM&quot;);}"></path><path d="M160,150  L248,271  A150,150 0 0,1 183,298 L160,150  A0,0 0 0,0 160,150" stroke="white" stroke-width="1" fill="#109618" value="9982" onclick="if(confirm(&quot;Download the annotated sequences for this segment?&quot;)){window.open(&quot;https://api-ui.mg-rast.org/annotation/sequence/mgm4972425.3?source=Subsystems&amp;type=ontology&amp;filter_level=level1&amp;browser=1&amp;filter=Miscellaneous&amp;auth=mgrast%20KT9vZ7GkET7tB9TF9EZa68msM&quot;);}"></path><path d="M160,150  L183,298  A150,150 0 0,1 120,294 L160,150  A0,0 0 0,0 160,150" stroke="white" stroke-width="1" fill="#990099" value="9046" onclick="if(confirm(&quot;Download the annotated sequences for this segment?&quot;)){window.open(&quot;https://api-ui.mg-rast.org/annotation/sequence/mgm4972425.3?source=Subsystems&amp;type=ontology&amp;filter_level=level1&amp;browser=1&amp;filter=Protein%20Metabolism&amp;auth=mgrast%20KT9vZ7GkET7tB9TF9EZa68msM&quot;);}"></path><path d="M160,150  L120,294  A150,150 0 0,1 64,266 L160,150  A0,0 0 0,0 160,150" stroke="white" stroke-width="1" fill="#0099c6" value="8895" onclick="if(confirm(&quot;Download the annotated sequences for this segment?&quot;)){window.open(&quot;https://api-ui.mg-rast.org/annotation/sequence/mgm4972425.3?source=Subsystems&amp;type=ontology&amp;filter_level=level1&amp;browser=1&amp;filter=Cofactors,%20Vitamins,%20Prosthetic%20Groups,%20Pigments&amp;auth=mgrast%20KT9vZ7GkET7tB9TF9EZa68msM&quot;);}"></path><path d="M160,150  L64,266  A150,150 0 0,1 37,235 L160,150  A0,0 0 0,0 160,150" stroke="white" stroke-width="1" fill="#dd4477" value="5842" onclick="if(confirm(&quot;Download the annotated sequences for this segment?&quot;)){window.open(&quot;https://api-ui.mg-rast.org/annotation/sequence/mgm4972425.3?source=Subsystems&amp;type=ontology&amp;filter_level=level1&amp;browser=1&amp;filter=RNA%20Metabolism&amp;auth=mgrast%20KT9vZ7GkET7tB9TF9EZa68msM&quot;);}"></path><path d="M160,150  L37,235  A150,150 0 0,1 19,202 L160,150  A0,0 0 0,0 160,150" stroke="white" stroke-width="1" fill="#66aa00" value="5381" onclick="if(confirm(&quot;Download the annotated sequences for this segment?&quot;)){window.open(&quot;https://api-ui.mg-rast.org/annotation/sequence/mgm4972425.3?source=Subsystems&amp;type=ontology&amp;filter_level=level1&amp;browser=1&amp;filter=Fatty%20Acids,%20Lipids,%20and%20Isoprenoids&amp;auth=mgrast%20KT9vZ7GkET7tB9TF9EZa68msM&quot;);}"></path><path d="M160,150  L19,202  A150,150 0 0,1 11,167 L160,150  A0,0 0 0,0 160,150" stroke="white" stroke-width="1" fill="#b82e2e" value="5010" onclick="if(confirm(&quot;Download the annotated sequences for this segment?&quot;)){window.open(&quot;https://api-ui.mg-rast.org/annotation/sequence/mgm4972425.3?source=Subsystems&amp;type=ontology&amp;filter_level=level1&amp;browser=1&amp;filter=Cell%20Wall%20and%20Capsule&amp;auth=mgrast%20KT9vZ7GkET7tB9TF9EZa68msM&quot;);}"></path><path d="M160,150  L11,167  A150,150 0 0,1 10,135 L160,150  A0,0 0 0,0 160,150" stroke="white" stroke-width="1" fill="#316395" value="4545" onclick="if(confirm(&quot;Download the annotated sequences for this segment?&quot;)){window.open(&quot;https://api-ui.mg-rast.org/annotation/sequence/mgm4972425.3?source=Subsystems&amp;type=ontology&amp;filter_level=level1&amp;browser=1&amp;filter=DNA%20Metabolism&amp;auth=mgrast%20KT9vZ7GkET7tB9TF9EZa68msM&quot;);}"></path><path d="M160,150  L10,135  A150,150 0 0,1 16,107 L160,150  A0,0 0 0,0 160,150" stroke="white" stroke-width="1" fill="#994499" value="4047" onclick="if(confirm(&quot;Download the annotated sequences for this segment?&quot;)){window.open(&quot;https://api-ui.mg-rast.org/annotation/sequence/mgm4972425.3?source=Subsystems&amp;type=ontology&amp;filter_level=level1&amp;browser=1&amp;filter=Respiration&amp;auth=mgrast%20KT9vZ7GkET7tB9TF9EZa68msM&quot;);}"></path><path d="M160,150  L16,107  A150,150 0 0,1 24,86 L160,150  A0,0 0 0,0 160,150" stroke="white" stroke-width="1" fill="#22aa99" value="3288" onclick="if(confirm(&quot;Download the annotated sequences for this segment?&quot;)){window.open(&quot;https://api-ui.mg-rast.org/annotation/sequence/mgm4972425.3?source=Subsystems&amp;type=ontology&amp;filter_level=level1&amp;browser=1&amp;filter=Virulence,%20Disease%20and%20Defense&amp;auth=mgrast%20KT9vZ7GkET7tB9TF9EZa68msM&quot;);}"></path><path d="M160,150  L24,86  A150,150 0 0,1 35,66 L160,150  A0,0 0 0,0 160,150" stroke="white" stroke-width="1" fill="#aaaa11" value="3200" onclick="if(confirm(&quot;Download the annotated sequences for this segment?&quot;)){window.open(&quot;https://api-ui.mg-rast.org/annotation/sequence/mgm4972425.3?source=Subsystems&amp;type=ontology&amp;filter_level=level1&amp;browser=1&amp;filter=Nucleosides%20and%20Nucleotides&amp;auth=mgrast%20KT9vZ7GkET7tB9TF9EZa68msM&quot;);}"></path><path d="M160,150  L35,66  A150,150 0 0,1 48,49 L160,150  A0,0 0 0,0 160,150" stroke="white" stroke-width="1" fill="#6633cc" value="3055" onclick="if(confirm(&quot;Download the annotated sequences for this segment?&quot;)){window.open(&quot;https://api-ui.mg-rast.org/annotation/sequence/mgm4972425.3?source=Subsystems&amp;type=ontology&amp;filter_level=level1&amp;browser=1&amp;filter=Membrane%20Transport&amp;auth=mgrast%20KT9vZ7GkET7tB9TF9EZa68msM&quot;);}"></path><path d="M160,150  L48,49  A150,150 0 0,1 64,34 L160,150  A0,0 0 0,0 160,150" stroke="white" stroke-width="1" fill="#e67300" value="3050" onclick="if(confirm(&quot;Download the annotated sequences for this segment?&quot;)){window.open(&quot;https://api-ui.mg-rast.org/annotation/sequence/mgm4972425.3?source=Subsystems&amp;type=ontology&amp;filter_level=level1&amp;browser=1&amp;filter=Stress%20Response&amp;auth=mgrast%20KT9vZ7GkET7tB9TF9EZa68msM&quot;);}"></path><path d="M160,150  L64,34  A150,150 0 0,1 79,23 L160,150  A0,0 0 0,0 160,150" stroke="white" stroke-width="1" fill="#8b0707" value="2617" onclick="if(confirm(&quot;Download the annotated sequences for this segment?&quot;)){window.open(&quot;https://api-ui.mg-rast.org/annotation/sequence/mgm4972425.3?source=Subsystems&amp;type=ontology&amp;filter_level=level1&amp;browser=1&amp;filter=Metabolism%20of%20Aromatic%20Compounds&amp;auth=mgrast%20KT9vZ7GkET7tB9TF9EZa68msM&quot;);}"></path><path d="M160,150  L79,23  A150,150 0 0,1 89,17 L160,150  A0,0 0 0,0 160,150" stroke="white" stroke-width="1" fill="#651067" value="1709" onclick="if(confirm(&quot;Download the annotated sequences for this segment?&quot;)){window.open(&quot;https://api-ui.mg-rast.org/annotation/sequence/mgm4972425.3?source=Subsystems&amp;type=ontology&amp;filter_level=level1&amp;browser=1&amp;filter=Regulation%20and%20Cell%20signaling&amp;auth=mgrast%20KT9vZ7GkET7tB9TF9EZa68msM&quot;);}"></path><path d="M160,150  L89,17  A150,150 0 0,1 99,12 L160,150  A0,0 0 0,0 160,150" stroke="white" stroke-width="1" fill="#329262" value="1542" onclick="if(confirm(&quot;Download the annotated sequences for this segment?&quot;)){window.open(&quot;https://api-ui.mg-rast.org/annotation/sequence/mgm4972425.3?source=Subsystems&amp;type=ontology&amp;filter_level=level1&amp;browser=1&amp;filter=Phosphorus%20Metabolism&amp;auth=mgrast%20KT9vZ7GkET7tB9TF9EZa68msM&quot;);}"></path><path d="M160,150  L99,12  A150,150 0 0,1 109,8 L160,150  A0,0 0 0,0 160,150" stroke="white" stroke-width="1" fill="#5574a6" value="1501" onclick="if(confirm(&quot;Download the annotated sequences for this segment?&quot;)){window.open(&quot;https://api-ui.mg-rast.org/annotation/sequence/mgm4972425.3?source=Subsystems&amp;type=ontology&amp;filter_level=level1&amp;browser=1&amp;filter=Sulfur%20Metabolism&amp;auth=mgrast%20KT9vZ7GkET7tB9TF9EZa68msM&quot;);}"></path><path d="M160,150  L109,8  A150,150 0 0,1 118,5 L160,150  A0,0 0 0,0 160,150" stroke="white" stroke-width="1" fill="#3b3eac" value="1324" onclick="if(confirm(&quot;Download the annotated sequences for this segment?&quot;)){window.open(&quot;https://api-ui.mg-rast.org/annotation/sequence/mgm4972425.3?source=Subsystems&amp;type=ontology&amp;filter_level=level1&amp;browser=1&amp;filter=Cell%20Division%20and%20Cell%20Cycle&amp;auth=mgrast%20KT9vZ7GkET7tB9TF9EZa68msM&quot;);}"></path><path d="M160,150  L118,5  A150,150 0 0,1 126,3 L160,150  A0,0 0 0,0 160,150" stroke="white" stroke-width="1" fill="#b77322" value="1256" onclick="if(confirm(&quot;Download the annotated sequences for this segment?&quot;)){window.open(&quot;https://api-ui.mg-rast.org/annotation/sequence/mgm4972425.3?source=Subsystems&amp;type=ontology&amp;filter_level=level1&amp;browser=1&amp;filter=Motility%20and%20Chemotaxis&amp;auth=mgrast%20KT9vZ7GkET7tB9TF9EZa68msM&quot;);}"></path><path d="M160,150  L126,3  A150,150 0 0,1 135,2 L160,150  A0,0 0 0,0 160,150" stroke="white" stroke-width="1" fill="#16d620" value="1251" onclick="if(confirm(&quot;Download the annotated sequences for this segment?&quot;)){window.open(&quot;https://api-ui.mg-rast.org/annotation/sequence/mgm4972425.3?source=Subsystems&amp;type=ontology&amp;filter_level=level1&amp;browser=1&amp;filter=Phages,%20Prophages,%20Transposable%20elements,%20Plasmids&amp;auth=mgrast%20KT9vZ7GkET7tB9TF9EZa68msM&quot;);}"></path><path d="M160,150  L135,2  A150,150 0 0,1 143,0 L160,150  A0,0 0 0,0 160,150" stroke="white" stroke-width="1" fill="#b91383" value="1204" onclick="if(confirm(&quot;Download the annotated sequences for this segment?&quot;)){window.open(&quot;https://api-ui.mg-rast.org/annotation/sequence/mgm4972425.3?source=Subsystems&amp;type=ontology&amp;filter_level=level1&amp;browser=1&amp;filter=Nitrogen%20Metabolism&amp;auth=mgrast%20KT9vZ7GkET7tB9TF9EZa68msM&quot;);}"></path><path d="M160,150  L143,0  A150,150 0 0,1 150,0 L160,150  A0,0 0 0,0 160,150" stroke="white" stroke-width="1" fill="#f4359e" value="972" onclick="if(confirm(&quot;Download the annotated sequences for this segment?&quot;)){window.open(&quot;https://api-ui.mg-rast.org/annotation/sequence/mgm4972425.3?source=Subsystems&amp;type=ontology&amp;filter_level=level1&amp;browser=1&amp;filter=Iron%20acquisition%20and%20metabolism&amp;auth=mgrast%20KT9vZ7GkET7tB9TF9EZa68msM&quot;);}"></path><path d="M160,150  L150,0  A150,150 0 0,1 154,0 L160,150  A0,0 0 0,0 160,150" stroke="white" stroke-width="1" fill="#9c5935" value="488" onclick="if(confirm(&quot;Download the annotated sequences for this segment?&quot;)){window.open(&quot;https://api-ui.mg-rast.org/annotation/sequence/mgm4972425.3?source=Subsystems&amp;type=ontology&amp;filter_level=level1&amp;browser=1&amp;filter=Secondary%20Metabolism&amp;auth=mgrast%20KT9vZ7GkET7tB9TF9EZa68msM&quot;);}"></path><path d="M160,150  L154,0  A150,150 0 0,1 157,0 L160,150  A0,0 0 0,0 160,150" stroke="white" stroke-width="1" fill="#a9c413" value="451" onclick="if(confirm(&quot;Download the annotated sequences for this segment?&quot;)){window.open(&quot;https://api-ui.mg-rast.org/annotation/sequence/mgm4972425.3?source=Subsystems&amp;type=ontology&amp;filter_level=level1&amp;browser=1&amp;filter=Potassium%20metabolism&amp;auth=mgrast%20KT9vZ7GkET7tB9TF9EZa68msM&quot;);}"></path><path d="M160,150  L157,0  A150,150 0 0,1 159,0 L160,150  A0,0 0 0,0 160,150" stroke="white" stroke-width="1" fill="#2a778d" value="265" onclick="if(confirm(&quot;Download the annotated sequences for this segment?&quot;)){window.open(&quot;https://api-ui.mg-rast.org/annotation/sequence/mgm4972425.3?source=Subsystems&amp;type=ontology&amp;filter_level=level1&amp;browser=1&amp;filter=Dormancy%20and%20Sporulation&amp;auth=mgrast%20KT9vZ7GkET7tB9TF9EZa68msM&quot;);}"></path><path d="M160,150  L159,0  A150,150 0 0,1 159,0 L160,150  A0,0 0 0,0 160,150" stroke="white" stroke-width="1" fill="#668d1c" value="121" onclick="if(confirm(&quot;Download the annotated sequences for this segment?&quot;)){window.open(&quot;https://api-ui.mg-rast.org/annotation/sequence/mgm4972425.3?source=Subsystems&amp;type=ontology&amp;filter_level=level1&amp;browser=1&amp;filter=Photosynthesis&amp;auth=mgrast%20KT9vZ7GkET7tB9TF9EZa68msM&quot;);}"></path></g><g><rect x="400" y="50" width="15" height="15" stroke="white" stroke-width="0" fill="#3366cc"></rect><text x="430" y="63" font-size="15" font-weight="normal" font-family="Helvetica" style="cursor: default;">Carbohydrates - 19,983 (14.98%)</text><rect x="400" y="75" width="15" height="15" stroke="white" stroke-width="0" fill="#dc3912"></rect><text x="430" y="88" font-size="15" font-weight="normal" font-family="Helvetica" style="cursor: default;">Clustering-based subsystems - 18,459 (13.84%)</text><rect x="400" y="100" width="15" height="15" stroke="white" stroke-width="0" fill="#ff9900"></rect><text x="430" y="113" font-size="15" font-weight="normal" font-family="Helvetica" style="cursor: default;">Amino Acids and Derivatives - 14,876 (11.15%)</text><rect x="400" y="125" width="15" height="15" stroke="white" stroke-width="0" fill="#109618"></rect><text x="430" y="138" font-size="15" font-weight="normal" font-family="Helvetica" style="cursor: default;">Miscellaneous - 9,982 (7.49%)</text><rect x="400" y="150" width="15" height="15" stroke="white" stroke-width="0" fill="#990099"></rect><text x="430" y="163" font-size="15" font-weight="normal" font-family="Helvetica" style="cursor: default;">Protein Metabolism - 9,046 (6.78%)</text><rect x="400" y="175" width="15" height="15" stroke="white" stroke-width="0" fill="#0099c6"></rect><text x="430" y="188" font-size="15" font-weight="normal" font-family="Helvetica" style="cursor: default;">Cofactors, Vitamins, Prosthetic Groups, Pigments - 8,895 (6.67%)</text><rect x="400" y="200" width="15" height="15" stroke="white" stroke-width="0" fill="#dd4477"></rect><text x="430" y="213" font-size="15" font-weight="normal" font-family="Helvetica" style="cursor: default;">RNA Metabolism - 5,842 (4.38%)</text><rect x="400" y="225" width="15" height="15" stroke="white" stroke-width="0" fill="#66aa00"></rect><text x="430" y="238" font-size="15" font-weight="normal" font-family="Helvetica" style="cursor: default;">Fatty Acids, Lipids, and Isoprenoids - 5,381 (4.03%)</text><rect x="400" y="250" width="15" height="15" stroke="white" stroke-width="0" fill="#b82e2e"></rect><text x="430" y="263" font-size="15" font-weight="normal" font-family="Helvetica" style="cursor: default;">Cell Wall and Capsule - 5,010 (3.76%)</text><rect x="400" y="275" width="15" height="15" stroke="white" stroke-width="0" fill="#316395"></rect><text x="430" y="288" font-size="15" font-weight="normal" font-family="Helvetica" style="cursor: default;">DNA Metabolism - 4,545 (3.41%)</text><rect x="400" y="300" width="15" height="15" stroke="white" stroke-width="0" fill="#994499"></rect><text x="430" y="313" font-size="15" font-weight="normal" font-family="Helvetica" style="cursor: default;">Respiration - 4,047 (3.03%)</text><rect x="400" y="325" width="15" height="15" stroke="white" stroke-width="0" fill="#22aa99"></rect><text x="430" y="338" font-size="15" font-weight="normal" font-family="Helvetica" style="cursor: default;">Virulence, Disease and Defense - 3,288 (2.47%)</text><rect x="400" y="350" width="15" height="15" stroke="white" stroke-width="0" fill="#aaaa11"></rect><text x="430" y="363" font-size="15" font-weight="normal" font-family="Helvetica" style="cursor: default;">Nucleosides and Nucleotides - 3,200 (2.40%)</text><rect x="400" y="375" width="15" height="15" stroke="white" stroke-width="0" fill="#6633cc"></rect><text x="430" y="388" font-size="15" font-weight="normal" font-family="Helvetica" style="cursor: default;">Membrane Transport - 3,055 (2.29%)</text><rect x="400" y="400" width="15" height="15" stroke="white" stroke-width="0" fill="#e67300"></rect><text x="430" y="413" font-size="15" font-weight="normal" font-family="Helvetica" style="cursor: default;">Stress Response - 3,050 (2.29%)</text><rect x="400" y="425" width="15" height="15" stroke="white" stroke-width="0" fill="#8b0707"></rect><text x="430" y="438" font-size="15" font-weight="normal" font-family="Helvetica" style="cursor: default;">Metabolism of Aromatic Compounds - 2,617 (1.96%)</text><rect x="400" y="450" width="15" height="15" stroke="white" stroke-width="0" fill="#651067"></rect><text x="430" y="463" font-size="15" font-weight="normal" font-family="Helvetica" style="cursor: default;">Regulation and Cell signaling - 1,709 (1.28%)</text><rect x="400" y="475" width="15" height="15" stroke="white" stroke-width="0" fill="#329262"></rect><text x="430" y="488" font-size="15" font-weight="normal" font-family="Helvetica" style="cursor: default;">Phosphorus Metabolism - 1,542 (1.16%)</text><rect x="400" y="500" width="15" height="15" stroke="white" stroke-width="0" fill="#5574a6"></rect><text x="430" y="513" font-size="15" font-weight="normal" font-family="Helvetica" style="cursor: default;">Sulfur Metabolism - 1,501 (1.13%)</text><rect x="400" y="525" width="15" height="15" stroke="white" stroke-width="0" fill="#3b3eac"></rect><text x="430" y="538" font-size="15" font-weight="normal" font-family="Helvetica" style="cursor: default;">Cell Division and Cell Cycle - 1,324 (0.99%)</text><rect x="400" y="550" width="15" height="15" stroke="white" stroke-width="0" fill="#b77322"></rect><text x="430" y="563" font-size="15" font-weight="normal" font-family="Helvetica" style="cursor: default;">Motility and Chemotaxis - 1,256 (0.94%)</text><rect x="400" y="575" width="15" height="15" stroke="white" stroke-width="0" fill="#16d620"></rect><text x="430" y="588" font-size="15" font-weight="normal" font-family="Helvetica" style="cursor: default;">Phages, Prophages, Transposable elements, Plasmids - 1,251 (0.94%)</text><rect x="400" y="600" width="15" height="15" stroke="white" stroke-width="0" fill="#b91383"></rect><text x="430" y="613" font-size="15" font-weight="normal" font-family="Helvetica" style="cursor: default;">Nitrogen Metabolism - 1,204 (0.90%)</text><rect x="400" y="625" width="15" height="15" stroke="white" stroke-width="0" fill="#f4359e"></rect><text x="430" y="638" font-size="15" font-weight="normal" font-family="Helvetica" style="cursor: default;">Iron acquisition and metabolism - 972 (0.73%)</text><rect x="400" y="650" width="15" height="15" stroke="white" stroke-width="0" fill="#9c5935"></rect><text x="430" y="663" font-size="15" font-weight="normal" font-family="Helvetica" style="cursor: default;">Secondary Metabolism - 488 (0.37%)</text><rect x="400" y="675" width="15" height="15" stroke="white" stroke-width="0" fill="#a9c413"></rect><text x="430" y="688" font-size="15" font-weight="normal" font-family="Helvetica" style="cursor: default;">Potassium metabolism - 451 (0.34%)</text><rect x="400" y="700" width="15" height="15" stroke="white" stroke-width="0" fill="#2a778d"></rect><text x="430" y="713" font-size="15" font-weight="normal" font-family="Helvetica" style="cursor: default;">Dormancy and Sporulation - 265 (0.20%)</text><rect x="400" y="725" width="15" height="15" stroke="white" stroke-width="0" fill="#668d1c"></rect><text x="430" y="738" font-size="15" font-weight="normal" font-family="Helvetica" style="cursor: default;">Photosynthesis - 121 (0.09%)</text></g></svg>