<svg version="1.1" xmlns="http://www.w3.org/2000/svg" viewBox="0 0 800 400"><g><path d="M160,150  L160,0  A150,150 0 0,1 185,297 L160,150  A0,0 0 0,0 160,150" stroke="white" stroke-width="1" fill="#3366cc" value="21966" onclick="if(confirm(&quot;Download the annotated sequences for this segment?&quot;)){window.open(&quot;https://api-ui.mg-rast.org/annotation/sequence/mgm4972427.3?browser=1&amp;filter_level=phylum&amp;type=organism&amp;filter=Proteobacteria&amp;auth=mgrast%20KT9vZ7GkET7tB9TF9EZa68msM&quot;);}"></path><path d="M160,150  L185,297  A150,150 0 0,1 15,110 L160,150  A0,0 0 0,0 160,150" stroke="white" stroke-width="1" fill="#dc3912" value="14814" onclick="if(confirm(&quot;Download the annotated sequences for this segment?&quot;)){window.open(&quot;https://api-ui.mg-rast.org/annotation/sequence/mgm4972427.3?browser=1&amp;filter_level=phylum&amp;type=organism&amp;filter=Actinobacteria&amp;auth=mgrast%20KT9vZ7GkET7tB9TF9EZa68msM&quot;);}"></path><path d="M160,150  L15,110  A150,150 0 0,1 28,78 L160,150  A0,0 0 0,0 160,150" stroke="white" stroke-width="1" fill="#ff9900" value="1742" onclick="if(confirm(&quot;Download the annotated sequences for this segment?&quot;)){window.open(&quot;https://api-ui.mg-rast.org/annotation/sequence/mgm4972427.3?browser=1&amp;filter_level=phylum&amp;type=organism&amp;filter=Acidobacteria&amp;auth=mgrast%20KT9vZ7GkET7tB9TF9EZa68msM&quot;);}"></path><path d="M160,150  L28,78  A150,150 0 0,1 40,59 L160,150  A0,0 0 0,0 160,150" stroke="white" stroke-width="1" fill="#109618" value="1099" onclick="if(confirm(&quot;Download the annotated sequences for this segment?&quot;)){window.open(&quot;https://api-ui.mg-rast.org/annotation/sequence/mgm4972427.3?browser=1&amp;filter_level=phylum&amp;type=organism&amp;filter=Firmicutes&amp;auth=mgrast%20KT9vZ7GkET7tB9TF9EZa68msM&quot;);}" style="opacity: 1;"></path><path d="M160,150  L40,59  A150,150 0 0,1 54,43 L160,150  A0,0 0 0,0 160,150" stroke="white" stroke-width="1" fill="#990099" value="1067" onclick="if(confirm(&quot;Download the annotated sequences for this segment?&quot;)){window.open(&quot;https://api-ui.mg-rast.org/annotation/sequence/mgm4972427.3?browser=1&amp;filter_level=phylum&amp;type=organism&amp;filter=Chloroflexi&amp;auth=mgrast%20KT9vZ7GkET7tB9TF9EZa68msM&quot;);}" style="opacity: 1;"></path><path d="M160,150  L54,43  A150,150 0 0,1 70,29 L160,150  A0,0 0 0,0 160,150" stroke="white" stroke-width="1" fill="#0099c6" value="1038" onclick="if(confirm(&quot;Download the annotated sequences for this segment?&quot;)){window.open(&quot;https://api-ui.mg-rast.org/annotation/sequence/mgm4972427.3?browser=1&amp;filter_level=phylum&amp;type=organism&amp;filter=Planctomycetes&amp;auth=mgrast%20KT9vZ7GkET7tB9TF9EZa68msM&quot;);}"></path><path d="M160,150  L70,29  A150,150 0 0,1 83,21 L160,150  A0,0 0 0,0 160,150" stroke="white" stroke-width="1" fill="#dd4477" value="730" onclick="if(confirm(&quot;Download the annotated sequences for this segment?&quot;)){window.open(&quot;https://api-ui.mg-rast.org/annotation/sequence/mgm4972427.3?browser=1&amp;filter_level=phylum&amp;type=organism&amp;filter=Euryarchaeota&amp;auth=mgrast%20KT9vZ7GkET7tB9TF9EZa68msM&quot;);}"></path><path d="M160,150  L83,21  A150,150 0 0,1 95,14 L160,150  A0,0 0 0,0 160,150" stroke="white" stroke-width="1" fill="#66aa00" value="677" onclick="if(confirm(&quot;Download the annotated sequences for this segment?&quot;)){window.open(&quot;https://api-ui.mg-rast.org/annotation/sequence/mgm4972427.3?browser=1&amp;filter_level=phylum&amp;type=organism&amp;filter=Verrucomicrobia&amp;auth=mgrast%20KT9vZ7GkET7tB9TF9EZa68msM&quot;);}"></path><path d="M160,150  L95,14  A150,150 0 0,1 107,9 L160,150  A0,0 0 0,0 160,150" stroke="white" stroke-width="1" fill="#b82e2e" value="674" onclick="if(confirm(&quot;Download the annotated sequences for this segment?&quot;)){window.open(&quot;https://api-ui.mg-rast.org/annotation/sequence/mgm4972427.3?browser=1&amp;filter_level=phylum&amp;type=organism&amp;filter=Bacteroidetes&amp;auth=mgrast%20KT9vZ7GkET7tB9TF9EZa68msM&quot;);}"></path><path d="M160,150  L107,9  A150,150 0 0,1 118,5 L160,150  A0,0 0 0,0 160,150" stroke="white" stroke-width="1" fill="#316395" value="541" onclick="if(confirm(&quot;Download the annotated sequences for this segment?&quot;)){window.open(&quot;https://api-ui.mg-rast.org/annotation/sequence/mgm4972427.3?browser=1&amp;filter_level=phylum&amp;type=organism&amp;filter=Cyanobacteria&amp;auth=mgrast%20KT9vZ7GkET7tB9TF9EZa68msM&quot;);}"></path><path d="M160,150  L118,5  A150,150 0 0,1 125,3 L160,150  A0,0 0 0,0 160,150" stroke="white" stroke-width="1" fill="#994499" value="377" onclick="if(confirm(&quot;Download the annotated sequences for this segment?&quot;)){window.open(&quot;https://api-ui.mg-rast.org/annotation/sequence/mgm4972427.3?browser=1&amp;filter_level=phylum&amp;type=organism&amp;filter=unclassified%20(derived%20from%20Bacteria)&amp;auth=mgrast%20KT9vZ7GkET7tB9TF9EZa68msM&quot;);}"></path><path d="M160,150  L125,3  A150,150 0 0,1 131,2 L160,150  A0,0 0 0,0 160,150" stroke="white" stroke-width="1" fill="#22aa99" value="312" onclick="if(confirm(&quot;Download the annotated sequences for this segment?&quot;)){window.open(&quot;https://api-ui.mg-rast.org/annotation/sequence/mgm4972427.3?browser=1&amp;filter_level=phylum&amp;type=organism&amp;filter=Nitrospirae&amp;auth=mgrast%20KT9vZ7GkET7tB9TF9EZa68msM&quot;);}"></path><path d="M160,150  L131,2  A150,150 0 0,1 136,1 L160,150  A0,0 0 0,0 160,150" stroke="white" stroke-width="1" fill="#aaaa11" value="249" onclick="if(confirm(&quot;Download the annotated sequences for this segment?&quot;)){window.open(&quot;https://api-ui.mg-rast.org/annotation/sequence/mgm4972427.3?browser=1&amp;filter_level=phylum&amp;type=organism&amp;filter=Gemmatimonadetes&amp;auth=mgrast%20KT9vZ7GkET7tB9TF9EZa68msM&quot;);}"></path><path d="M160,150  L136,1  A150,150 0 0,1 141,1 L160,150  A0,0 0 0,0 160,150" stroke="white" stroke-width="1" fill="#6633cc" value="220" onclick="if(confirm(&quot;Download the annotated sequences for this segment?&quot;)){window.open(&quot;https://api-ui.mg-rast.org/annotation/sequence/mgm4972427.3?browser=1&amp;filter_level=phylum&amp;type=organism&amp;filter=Thaumarchaeota&amp;auth=mgrast%20KT9vZ7GkET7tB9TF9EZa68msM&quot;);}"></path><path d="M160,150  L141,1  A150,150 0 0,1 143,0 L160,150  A0,0 0 0,0 160,150" stroke="white" stroke-width="1" fill="#e67300" value="133" onclick="if(confirm(&quot;Download the annotated sequences for this segment?&quot;)){window.open(&quot;https://api-ui.mg-rast.org/annotation/sequence/mgm4972427.3?browser=1&amp;filter_level=phylum&amp;type=organism&amp;filter=Deinococcus-Thermus&amp;auth=mgrast%20KT9vZ7GkET7tB9TF9EZa68msM&quot;);}"></path><path d="M160,150  L143,0  A150,150 0 0,1 146,0 L160,150  A0,0 0 0,0 160,150" stroke="white" stroke-width="1" fill="#8b0707" value="107" onclick="if(confirm(&quot;Download the annotated sequences for this segment?&quot;)){window.open(&quot;https://api-ui.mg-rast.org/annotation/sequence/mgm4972427.3?browser=1&amp;filter_level=phylum&amp;type=organism&amp;filter=Crenarchaeota&amp;auth=mgrast%20KT9vZ7GkET7tB9TF9EZa68msM&quot;);}"></path><path d="M160,150  L146,0  A150,150 0 0,1 147,0 L160,150  A0,0 0 0,0 160,150" stroke="white" stroke-width="1" fill="#651067" value="86" onclick="if(confirm(&quot;Download the annotated sequences for this segment?&quot;)){window.open(&quot;https://api-ui.mg-rast.org/annotation/sequence/mgm4972427.3?browser=1&amp;filter_level=phylum&amp;type=organism&amp;filter=unclassified%20(derived%20from%20unclassified%20sequences)&amp;auth=mgrast%20KT9vZ7GkET7tB9TF9EZa68msM&quot;);}"></path><path d="M160,150  L147,0  A150,150 0 0,1 149,0 L160,150  A0,0 0 0,0 160,150" stroke="white" stroke-width="1" fill="#329262" value="74" onclick="if(confirm(&quot;Download the annotated sequences for this segment?&quot;)){window.open(&quot;https://api-ui.mg-rast.org/annotation/sequence/mgm4972427.3?browser=1&amp;filter_level=phylum&amp;type=organism&amp;filter=Ascomycota&amp;auth=mgrast%20KT9vZ7GkET7tB9TF9EZa68msM&quot;);}"></path><path d="M160,150  L149,0  A150,150 0 0,1 150,0 L160,150  A0,0 0 0,0 160,150" stroke="white" stroke-width="1" fill="#5574a6" value="73" onclick="if(confirm(&quot;Download the annotated sequences for this segment?&quot;)){window.open(&quot;https://api-ui.mg-rast.org/annotation/sequence/mgm4972427.3?browser=1&amp;filter_level=phylum&amp;type=organism&amp;filter=Chlorobi&amp;auth=mgrast%20KT9vZ7GkET7tB9TF9EZa68msM&quot;);}"></path><path d="M160,150  L150,0  A150,150 0 0,1 151,0 L160,150  A0,0 0 0,0 160,150" stroke="white" stroke-width="1" fill="#3b3eac" value="45" onclick="if(confirm(&quot;Download the annotated sequences for this segment?&quot;)){window.open(&quot;https://api-ui.mg-rast.org/annotation/sequence/mgm4972427.3?browser=1&amp;filter_level=phylum&amp;type=organism&amp;filter=Streptophyta&amp;auth=mgrast%20KT9vZ7GkET7tB9TF9EZa68msM&quot;);}"></path><path d="M160,150  L151,0  A150,150 0 0,1 152,0 L160,150  A0,0 0 0,0 160,150" stroke="white" stroke-width="1" fill="#b77322" value="43" onclick="if(confirm(&quot;Download the annotated sequences for this segment?&quot;)){window.open(&quot;https://api-ui.mg-rast.org/annotation/sequence/mgm4972427.3?browser=1&amp;filter_level=phylum&amp;type=organism&amp;filter=Spirochaetes&amp;auth=mgrast%20KT9vZ7GkET7tB9TF9EZa68msM&quot;);}"></path><path d="M160,150  L152,0  A150,150 0 0,1 153,0 L160,150  A0,0 0 0,0 160,150" stroke="white" stroke-width="1" fill="#16d620" value="39" onclick="if(confirm(&quot;Download the annotated sequences for this segment?&quot;)){window.open(&quot;https://api-ui.mg-rast.org/annotation/sequence/mgm4972427.3?browser=1&amp;filter_level=phylum&amp;type=organism&amp;filter=unclassified%20(derived%20from%20Eukaryota)&amp;auth=mgrast%20KT9vZ7GkET7tB9TF9EZa68msM&quot;);}"></path><path d="M160,150  L153,0  A150,150 0 0,1 154,0 L160,150  A0,0 0 0,0 160,150" stroke="white" stroke-width="1" fill="#b91383" value="38" onclick="if(confirm(&quot;Download the annotated sequences for this segment?&quot;)){window.open(&quot;https://api-ui.mg-rast.org/annotation/sequence/mgm4972427.3?browser=1&amp;filter_level=phylum&amp;type=organism&amp;filter=Chlamydiae&amp;auth=mgrast%20KT9vZ7GkET7tB9TF9EZa68msM&quot;);}"></path><path d="M160,150  L154,0  A150,150 0 0,1 154,0 L160,150  A0,0 0 0,0 160,150" stroke="white" stroke-width="1" fill="#f4359e" value="33" onclick="if(confirm(&quot;Download the annotated sequences for this segment?&quot;)){window.open(&quot;https://api-ui.mg-rast.org/annotation/sequence/mgm4972427.3?browser=1&amp;filter_level=phylum&amp;type=organism&amp;filter=Synergistetes&amp;auth=mgrast%20KT9vZ7GkET7tB9TF9EZa68msM&quot;);}"></path><path d="M160,150  L154,0  A150,150 0 0,1 155,0 L160,150  A0,0 0 0,0 160,150" stroke="white" stroke-width="1" fill="#9c5935" value="31" onclick="if(confirm(&quot;Download the annotated sequences for this segment?&quot;)){window.open(&quot;https://api-ui.mg-rast.org/annotation/sequence/mgm4972427.3?browser=1&amp;filter_level=phylum&amp;type=organism&amp;filter=Chordata&amp;auth=mgrast%20KT9vZ7GkET7tB9TF9EZa68msM&quot;);}"></path><path d="M160,150  L155,0  A150,150 0 0,1 155,0 L160,150  A0,0 0 0,0 160,150" stroke="white" stroke-width="1" fill="#a9c413" value="24" onclick="if(confirm(&quot;Download the annotated sequences for this segment?&quot;)){window.open(&quot;https://api-ui.mg-rast.org/annotation/sequence/mgm4972427.3?browser=1&amp;filter_level=phylum&amp;type=organism&amp;filter=Arthropoda&amp;auth=mgrast%20KT9vZ7GkET7tB9TF9EZa68msM&quot;);}"></path><path d="M160,150  L155,0  A150,150 0 0,1 156,0 L160,150  A0,0 0 0,0 160,150" stroke="white" stroke-width="1" fill="#2a778d" value="23" onclick="if(confirm(&quot;Download the annotated sequences for this segment?&quot;)){window.open(&quot;https://api-ui.mg-rast.org/annotation/sequence/mgm4972427.3?browser=1&amp;filter_level=phylum&amp;type=organism&amp;filter=Aquificae&amp;auth=mgrast%20KT9vZ7GkET7tB9TF9EZa68msM&quot;);}"></path><path d="M160,150  L156,0  A150,150 0 0,1 156,0 L160,150  A0,0 0 0,0 160,150" stroke="white" stroke-width="1" fill="#668d1c" value="19" onclick="if(confirm(&quot;Download the annotated sequences for this segment?&quot;)){window.open(&quot;https://api-ui.mg-rast.org/annotation/sequence/mgm4972427.3?browser=1&amp;filter_level=phylum&amp;type=organism&amp;filter=Thermotogae&amp;auth=mgrast%20KT9vZ7GkET7tB9TF9EZa68msM&quot;);}"></path><path d="M160,150  L156,0  A150,150 0 0,1 157,0 L160,150  A0,0 0 0,0 160,150" stroke="white" stroke-width="1" fill="#bea413" value="18" onclick="if(confirm(&quot;Download the annotated sequences for this segment?&quot;)){window.open(&quot;https://api-ui.mg-rast.org/annotation/sequence/mgm4972427.3?browser=1&amp;filter_level=phylum&amp;type=organism&amp;filter=unclassified%20(derived%20from%20Archaea)&amp;auth=mgrast%20KT9vZ7GkET7tB9TF9EZa68msM&quot;);}"></path><path d="M160,150  L157,0  A150,150 0 0,1 157,0 L160,150  A0,0 0 0,0 160,150" stroke="white" stroke-width="1" fill="#0c5922" value="16" onclick="if(confirm(&quot;Download the annotated sequences for this segment?&quot;)){window.open(&quot;https://api-ui.mg-rast.org/annotation/sequence/mgm4972427.3?browser=1&amp;filter_level=phylum&amp;type=organism&amp;filter=Candidatus%20Poribacteria&amp;auth=mgrast%20KT9vZ7GkET7tB9TF9EZa68msM&quot;);}"></path><path d="M160,150  L157,0  A150,150 0 0,1 157,0 L160,150  A0,0 0 0,0 160,150" stroke="white" stroke-width="1" fill="#743411" value="15" onclick="if(confirm(&quot;Download the annotated sequences for this segment?&quot;)){window.open(&quot;https://api-ui.mg-rast.org/annotation/sequence/mgm4972427.3?browser=1&amp;filter_level=phylum&amp;type=organism&amp;filter=Deferribacteres&amp;auth=mgrast%20KT9vZ7GkET7tB9TF9EZa68msM&quot;);}"></path><path d="M160,150  L157,0  A150,150 0 0,1 158,0 L160,150  A0,0 0 0,0 160,150" stroke="white" stroke-width="1" fill="#5386ec" value="15" onclick="if(confirm(&quot;Download the annotated sequences for this segment?&quot;)){window.open(&quot;https://api-ui.mg-rast.org/annotation/sequence/mgm4972427.3?browser=1&amp;filter_level=phylum&amp;type=organism&amp;filter=Lentisphaerae&amp;auth=mgrast%20KT9vZ7GkET7tB9TF9EZa68msM&quot;);}"></path><path d="M160,150  L158,0  A150,150 0 0,1 158,0 L160,150  A0,0 0 0,0 160,150" stroke="white" stroke-width="1" fill="#fc5932" value="13" onclick="if(confirm(&quot;Download the annotated sequences for this segment?&quot;)){window.open(&quot;https://api-ui.mg-rast.org/annotation/sequence/mgm4972427.3?browser=1&amp;filter_level=phylum&amp;type=organism&amp;filter=Chlorophyta&amp;auth=mgrast%20KT9vZ7GkET7tB9TF9EZa68msM&quot;);}"></path></g><g><rect x="400" y="50" width="15" height="15" stroke="white" stroke-width="0" fill="#3366cc"></rect><text x="430" y="63" font-size="15" font-weight="normal" font-family="Helvetica" style="cursor: default;">Proteobacteria - 21,966 (47.31%)</text><rect x="400" y="75" width="15" height="15" stroke="white" stroke-width="0" fill="#dc3912"></rect><text x="430" y="88" font-size="15" font-weight="normal" font-family="Helvetica" style="cursor: default;">Actinobacteria - 14,814 (31.90%)</text><rect x="400" y="100" width="15" height="15" stroke="white" stroke-width="0" fill="#ff9900"></rect><text x="430" y="113" font-size="15" font-weight="normal" font-family="Helvetica" style="cursor: default;">Acidobacteria - 1,742 (3.75%)</text><rect x="400" y="125" width="15" height="15" stroke="white" stroke-width="0" fill="#109618"></rect><text x="430" y="138" font-size="15" font-weight="normal" font-family="Helvetica" style="cursor: default; font-weight: normal;">Firmicutes - 1,099 (2.37%)</text><rect x="400" y="150" width="15" height="15" stroke="white" stroke-width="0" fill="#990099"></rect><text x="430" y="163" font-size="15" font-weight="normal" font-family="Helvetica" style="cursor: default; font-weight: normal;">Chloroflexi - 1,067 (2.30%)</text><rect x="400" y="175" width="15" height="15" stroke="white" stroke-width="0" fill="#0099c6"></rect><text x="430" y="188" font-size="15" font-weight="normal" font-family="Helvetica" style="cursor: default;">Planctomycetes - 1,038 (2.24%)</text><rect x="400" y="200" width="15" height="15" stroke="white" stroke-width="0" fill="#dd4477"></rect><text x="430" y="213" font-size="15" font-weight="normal" font-family="Helvetica" style="cursor: default;">Euryarchaeota - 730 (1.57%)</text><rect x="400" y="225" width="15" height="15" stroke="white" stroke-width="0" fill="#66aa00"></rect><text x="430" y="238" font-size="15" font-weight="normal" font-family="Helvetica" style="cursor: default;">Verrucomicrobia - 677 (1.46%)</text><rect x="400" y="250" width="15" height="15" stroke="white" stroke-width="0" fill="#b82e2e"></rect><text x="430" y="263" font-size="15" font-weight="normal" font-family="Helvetica" style="cursor: default;">Bacteroidetes - 674 (1.45%)</text><rect x="400" y="275" width="15" height="15" stroke="white" stroke-width="0" fill="#316395"></rect><text x="430" y="288" font-size="15" font-weight="normal" font-family="Helvetica" style="cursor: default;">Cyanobacteria - 541 (1.17%)</text><rect x="400" y="300" width="15" height="15" stroke="white" stroke-width="0" fill="#994499"></rect><text x="430" y="313" font-size="15" font-weight="normal" font-family="Helvetica" style="cursor: default;">unclassified (derived from Bacteria) - 377 (0.81%)</text><rect x="400" y="325" width="15" height="15" stroke="white" stroke-width="0" fill="#22aa99"></rect><text x="430" y="338" font-size="15" font-weight="normal" font-family="Helvetica" style="cursor: default;">Nitrospirae - 312 (0.67%)</text><rect x="400" y="350" width="15" height="15" stroke="white" stroke-width="0" fill="#aaaa11"></rect><text x="430" y="363" font-size="15" font-weight="normal" font-family="Helvetica" style="cursor: default;">Gemmatimonadetes - 249 (0.54%)</text><rect x="400" y="375" width="15" height="15" stroke="white" stroke-width="0" fill="#6633cc"></rect><text x="430" y="388" font-size="15" font-weight="normal" font-family="Helvetica" style="cursor: default;">Thaumarchaeota - 220 (0.47%)</text><rect x="400" y="400" width="15" height="15" stroke="white" stroke-width="0" fill="#e67300"></rect><text x="430" y="413" font-size="15" font-weight="normal" font-family="Helvetica" style="cursor: default;">Deinococcus-Thermus - 133 (0.29%)</text><rect x="400" y="425" width="15" height="15" stroke="white" stroke-width="0" fill="#8b0707"></rect><text x="430" y="438" font-size="15" font-weight="normal" font-family="Helvetica" style="cursor: default;">Crenarchaeota - 107 (0.23%)</text><rect x="400" y="450" width="15" height="15" stroke="white" stroke-width="0" fill="#651067"></rect><text x="430" y="463" font-size="15" font-weight="normal" font-family="Helvetica" style="cursor: default;">unclassified (derived from unclassified sequences) - 86 (0.19%)</text><rect x="400" y="475" width="15" height="15" stroke="white" stroke-width="0" fill="#329262"></rect><text x="430" y="488" font-size="15" font-weight="normal" font-family="Helvetica" style="cursor: default;">Ascomycota - 74 (0.16%)</text><rect x="400" y="500" width="15" height="15" stroke="white" stroke-width="0" fill="#5574a6"></rect><text x="430" y="513" font-size="15" font-weight="normal" font-family="Helvetica" style="cursor: default;">Chlorobi - 73 (0.16%)</text><rect x="400" y="525" width="15" height="15" stroke="white" stroke-width="0" fill="#3b3eac"></rect><text x="430" y="538" font-size="15" font-weight="normal" font-family="Helvetica" style="cursor: default;">Streptophyta - 45 (0.10%)</text><rect x="400" y="550" width="15" height="15" stroke="white" stroke-width="0" fill="#b77322"></rect><text x="430" y="563" font-size="15" font-weight="normal" font-family="Helvetica" style="cursor: default;">Spirochaetes - 43 (0.09%)</text><rect x="400" y="575" width="15" height="15" stroke="white" stroke-width="0" fill="#16d620"></rect><text x="430" y="588" font-size="15" font-weight="normal" font-family="Helvetica" style="cursor: default;">unclassified (derived from Eukaryota) - 39 (0.08%)</text><rect x="400" y="600" width="15" height="15" stroke="white" stroke-width="0" fill="#b91383"></rect><text x="430" y="613" font-size="15" font-weight="normal" font-family="Helvetica" style="cursor: default;">Chlamydiae - 38 (0.08%)</text><rect x="400" y="625" width="15" height="15" stroke="white" stroke-width="0" fill="#f4359e"></rect><text x="430" y="638" font-size="15" font-weight="normal" font-family="Helvetica" style="cursor: default;">Synergistetes - 33 (0.07%)</text><rect x="400" y="650" width="15" height="15" stroke="white" stroke-width="0" fill="#9c5935"></rect><text x="430" y="663" font-size="15" font-weight="normal" font-family="Helvetica" style="cursor: default;">Chordata - 31 (0.07%)</text><rect x="400" y="675" width="15" height="15" stroke="white" stroke-width="0" fill="#a9c413"></rect><text x="430" y="688" font-size="15" font-weight="normal" font-family="Helvetica" style="cursor: default;">Arthropoda - 24 (0.05%)</text><rect x="400" y="700" width="15" height="15" stroke="white" stroke-width="0" fill="#2a778d"></rect><text x="430" y="713" font-size="15" font-weight="normal" font-family="Helvetica" style="cursor: default;">Aquificae - 23 (0.05%)</text><rect x="400" y="725" width="15" height="15" stroke="white" stroke-width="0" fill="#668d1c"></rect><text x="430" y="738" font-size="15" font-weight="normal" font-family="Helvetica" style="cursor: default;">Thermotogae - 19 (0.04%)</text><rect x="400" y="750" width="15" height="15" stroke="white" stroke-width="0" fill="#bea413"></rect><text x="430" y="763" font-size="15" font-weight="normal" font-family="Helvetica" style="cursor: default;">unclassified (derived from Archaea) - 18 (0.04%)</text><rect x="400" y="775" width="15" height="15" stroke="white" stroke-width="0" fill="#0c5922"></rect><text x="430" y="788" font-size="15" font-weight="normal" font-family="Helvetica" style="cursor: default;">Candidatus Poribacteria - 16 (0.03%)</text><rect x="400" y="800" width="15" height="15" stroke="white" stroke-width="0" fill="#743411"></rect><text x="430" y="813" font-size="15" font-weight="normal" font-family="Helvetica" style="cursor: default;">Deferribacteres - 15 (0.03%)</text><rect x="400" y="825" width="15" height="15" stroke="white" stroke-width="0" fill="#5386ec"></rect><text x="430" y="838" font-size="15" font-weight="normal" font-family="Helvetica" style="cursor: default;">Lentisphaerae - 15 (0.03%)</text><rect x="400" y="850" width="15" height="15" stroke="white" stroke-width="0" fill="#fc5932"></rect><text x="430" y="863" font-size="15" font-weight="normal" font-family="Helvetica" style="cursor: default;">Chlorophyta - 13 (0.03%)</text><rect x="400" y="875" width="15" height="15" stroke="white" stroke-width="0" fill="#ffb920"></rect><text x="430" y="888" font-size="15" font-weight="normal" font-family="Helvetica">Fusobacteria - 10 (0.02%)</text><rect x="400" y="900" width="15" height="15" stroke="white" stroke-width="0" fill="#30b638"></rect><text x="430" y="913" font-size="15" font-weight="normal" font-family="Helvetica">unclassified (derived from Viruses) - 9 (0.02%)</text><rect x="400" y="925" width="15" height="15" stroke="white" stroke-width="0" fill="#b920b9"></rect><text x="430" y="938" font-size="15" font-weight="normal" font-family="Helvetica">Chrysiogenetes - 8 (0.02%)</text><rect x="400" y="950" width="15" height="15" stroke="white" stroke-width="0" fill="#20b9e6"></rect><text x="430" y="963" font-size="15" font-weight="normal" font-family="Helvetica">Dictyoglomi - 6 (0.01%)</text><rect x="400" y="975" width="15" height="15" stroke="white" stroke-width="0" fill="#fd6497"></rect><text x="430" y="988" font-size="15" font-weight="normal" font-family="Helvetica">Korarchaeota - 5 (0.01%)</text><rect x="400" y="1000" width="15" height="15" stroke="white" stroke-width="0" fill="#86ca20"></rect><text x="430" y="1013" font-size="15" font-weight="normal" font-family="Helvetica">Elusimicrobia - 5 (0.01%)</text><rect x="400" y="1025" width="15" height="15" stroke="white" stroke-width="0" fill="#d84e4e"></rect><text x="430" y="1038" font-size="15" font-weight="normal" font-family="Helvetica">Fibrobacteres - 5 (0.01%)</text><rect x="400" y="1050" width="15" height="15" stroke="white" stroke-width="0" fill="#5183b5"></rect><text x="430" y="1063" font-size="15" font-weight="normal" font-family="Helvetica">Apicomplexa - 5 (0.01%)</text><rect x="400" y="1075" width="15" height="15" stroke="white" stroke-width="0" fill="#b964b9"></rect><text x="430" y="1088" font-size="15" font-weight="normal" font-family="Helvetica">Basidiomycota - 4 (0.01%)</text><rect x="400" y="1100" width="15" height="15" stroke="white" stroke-width="0" fill="#42cab9"></rect><text x="430" y="1113" font-size="15" font-weight="normal" font-family="Helvetica">Phaeophyceae - 4 (0.01%)</text><rect x="400" y="1125" width="15" height="15" stroke="white" stroke-width="0" fill="#caca31"></rect><text x="430" y="1138" font-size="15" font-weight="normal" font-family="Helvetica">Cnidaria - 3 (0.01%)</text><rect x="400" y="1150" width="15" height="15" stroke="white" stroke-width="0" fill="#8653ec"></rect><text x="430" y="1163" font-size="15" font-weight="normal" font-family="Helvetica">Nematoda - 3 (0.01%)</text><rect x="400" y="1175" width="15" height="15" stroke="white" stroke-width="0" fill="#ff9320"></rect><text x="430" y="1188" font-size="15" font-weight="normal" font-family="Helvetica">Placozoa - 3 (0.01%)</text><rect x="400" y="1200" width="15" height="15" stroke="white" stroke-width="0" fill="#ab2727"></rect><text x="430" y="1213" font-size="15" font-weight="normal" font-family="Helvetica">Echinodermata - 2 (0.00%)</text><rect x="400" y="1225" width="15" height="15" stroke="white" stroke-width="0" fill="#853087"></rect><text x="430" y="1238" font-size="15" font-weight="normal" font-family="Helvetica">Hemichordata - 2 (0.00%)</text><rect x="400" y="1250" width="15" height="15" stroke="white" stroke-width="0" fill="#52b282"></rect><text x="430" y="1263" font-size="15" font-weight="normal" font-family="Helvetica">Platyhelminthes - 2 (0.00%)</text><rect x="400" y="1275" width="15" height="15" stroke="white" stroke-width="0" fill="#7594c6"></rect><text x="430" y="1288" font-size="15" font-weight="normal" font-family="Helvetica">unclassified (derived from other sequences) - 2 (0.00%)</text><rect x="400" y="1300" width="15" height="15" stroke="white" stroke-width="0" fill="#5b5ecc"></rect><text x="430" y="1313" font-size="15" font-weight="normal" font-family="Helvetica">Bacillariophyta - 1 (0.00%)</text><rect x="400" y="1325" width="15" height="15" stroke="white" stroke-width="0" fill="#d79342"></rect><text x="430" y="1338" font-size="15" font-weight="normal" font-family="Helvetica">Echiura - 1 (0.00%)</text><rect x="400" y="1350" width="15" height="15" stroke="white" stroke-width="0" fill="#36f640"></rect><text x="430" y="1363" font-size="15" font-weight="normal" font-family="Helvetica">Porifera - 1 (0.00%)</text></g></svg>